<svg xmlns="http://www.w3.org/2000/svg" viewBox="0 0 16 16" shape-rendering="crispEdges"><title>Pixelmation</title><rect x="5" y="1" width="6" height="1" fill="#6d8bff"/><rect x="3" y="2" width="2" height="1" fill="#3ddced"/><rect x="5" y="2" width="8" height="1" fill="#6d8bff"/><rect x="2" y="3" width="2" height="1" fill="#3ddced"/><rect x="4" y="3" width="10" height="1" fill="#6d8bff"/><rect x="1" y="4" width="2" height="1" fill="#3ddced"/><rect x="3" y="4" width="12" height="1" fill="#6d8bff"/><rect x="1" y="5" width="14" height="1" fill="#6d8bff"/><rect x="1" y="6" width="3" height="1" fill="#6d8bff"/><rect x="4" y="6" width="2" height="1" fill="#0b0e14"/><rect x="6" y="6" width="4" height="1" fill="#6d8bff"/><rect x="10" y="6" width="2" height="1" fill="#0b0e14"/><rect x="12" y="6" width="3" height="1" fill="#6d8bff"/><rect x="1" y="7" width="3" height="1" fill="#6d8bff"/><rect x="4" y="7" width="2" height="1" fill="#0b0e14"/><rect x="6" y="7" width="4" height="1" fill="#6d8bff"/><rect x="10" y="7" width="2" height="1" fill="#0b0e14"/><rect x="12" y="7" width="3" height="1" fill="#6d8bff"/><rect x="1" y="8" width="14" height="1" fill="#6d8bff"/><rect x="1" y="9" width="4" height="1" fill="#6d8bff"/><rect x="5" y="9" width="1" height="1" fill="#0b0e14"/><rect x="6" y="9" width="4" height="1" fill="#6d8bff"/><rect x="10" y="9" width="1" height="1" fill="#0b0e14"/><rect x="11" y="9" width="4" height="1" fill="#6d8bff"/><rect x="1" y="10" width="5" height="1" fill="#6d8bff"/><rect x="6" y="10" width="4" height="1" fill="#0b0e14"/><rect x="10" y="10" width="5" height="1" fill="#6d8bff"/><rect x="1" y="11" width="14" height="1" fill="#6d8bff"/><rect x="2" y="12" width="12" height="1" fill="#6d8bff"/><rect x="2" y="13" width="2" height="1" fill="#6d8bff"/><rect x="6" y="13" width="4" height="1" fill="#6d8bff"/><rect x="12" y="13" width="2" height="1" fill="#6d8bff"/></svg>
